<svg width="125" height="25" viewBox="0 0 125 25" fill="none" xmlns="http://www.w3.org/2000/svg">
<g clip-path="url(#clip0_29_291)">
<path d="M37.5123 10.4746C37.8321 10.5576 38.1766 10.6288 38.5457 10.6881C38.9147 10.7356 39.3207 10.7593 39.7636 10.7593C40.514 10.7593 41.1784 10.6585 41.7566 10.4568C42.3348 10.2551 42.8146 9.9822 43.1959 9.63813C43.5896 9.2822 43.8849 8.87881 44.0817 8.42797C44.2785 7.96525 44.3769 7.47288 44.3769 6.95085C44.3769 6.45254 44.2908 5.97797 44.1186 5.52712C43.9464 5.06441 43.6819 4.66695 43.3251 4.33475C42.9806 3.99068 42.5439 3.7178 42.0149 3.5161C41.4859 3.31441 40.8646 3.21356 40.1511 3.21356H35.833V15.6712H37.5123V10.4746ZM37.5123 3.99661H39.4499C39.9666 3.99661 40.4218 4.08559 40.8154 4.26356C41.2091 4.44153 41.5351 4.67881 41.7935 4.97542C42.0518 5.26017 42.2425 5.58644 42.3655 5.95424C42.5008 6.31017 42.5685 6.6661 42.5685 7.02203C42.5685 7.3661 42.507 7.7161 42.384 8.07203C42.2733 8.4161 42.0887 8.73051 41.8304 9.01525C41.572 9.3 41.246 9.53136 40.8523 9.70932C40.4587 9.88729 39.985 9.97627 39.4314 9.97627C39.0501 9.97627 38.6994 9.96441 38.3796 9.94068C38.0597 9.90509 37.7706 9.83983 37.5123 9.74492V3.99661ZM46.9657 6.77288V15.6712H48.5342V10.2966C48.5342 9.81017 48.5896 9.40085 48.7003 9.06864C48.8233 8.72458 48.9771 8.44576 49.1617 8.2322C49.3462 8.01864 49.5492 7.86441 49.7706 7.76949C49.9921 7.67458 50.2073 7.62712 50.4165 7.62712C50.6994 7.62712 50.9578 7.7161 51.1915 7.89407C51.4376 8.07203 51.616 8.23814 51.7267 8.39237L52.3541 7.28898C52.2434 7.14661 52.1081 7.02797 51.9481 6.93305C51.8005 6.83814 51.6467 6.76695 51.4868 6.71949C51.3392 6.66017 51.1977 6.62458 51.0624 6.61271C50.9393 6.58898 50.8471 6.57712 50.7856 6.57712C50.2689 6.57712 49.8383 6.71356 49.4938 6.98644C49.1494 7.25932 48.8664 7.66271 48.645 8.19661H48.5342V6.77288H46.9657ZM63.5707 11.2398C63.5707 11.8568 63.46 12.45 63.2385 13.0195C63.0171 13.5771 62.6972 14.0695 62.279 14.4966C61.873 14.9237 61.3747 15.2619 60.7842 15.511C60.206 15.7602 59.554 15.8847 58.8282 15.8847C58.09 15.8847 57.4196 15.7602 56.8168 15.511C56.2262 15.25 55.7218 14.9059 55.3036 14.4788C54.8976 14.0517 54.5777 13.5593 54.344 13.0017C54.1225 12.4322 54.0118 11.8449 54.0118 11.2398C54.0118 10.6229 54.1225 10.0356 54.344 9.47797C54.5777 8.90847 54.8976 8.41017 55.3036 7.98305C55.7218 7.55593 56.2262 7.2178 56.8168 6.96864C57.4196 6.70763 58.09 6.57712 58.8282 6.57712C59.554 6.57712 60.206 6.70763 60.7842 6.96864C61.3747 7.2178 61.873 7.55593 62.279 7.98305C62.6972 8.41017 63.0171 8.90847 63.2385 9.47797C63.46 10.0356 63.5707 10.6229 63.5707 11.2398ZM61.8176 11.2398C61.8176 10.4093 61.7254 9.73898 61.5408 9.22881C61.3563 8.70678 61.1164 8.30339 60.8211 8.01864C60.5259 7.7339 60.1999 7.54407 59.8431 7.44915C59.4863 7.34237 59.1419 7.28898 58.8097 7.28898C58.4776 7.28898 58.1331 7.34237 57.7763 7.44915C57.4196 7.54407 57.0874 7.7339 56.7798 8.01864C56.4846 8.30339 56.2385 8.70678 56.0417 9.22881C55.8572 9.73898 55.7649 10.4093 55.7649 11.2398C55.7649 12.0585 55.8572 12.7288 56.0417 13.2508C56.2385 13.761 56.4846 14.1585 56.7798 14.4432C57.0874 14.728 57.4196 14.9237 57.7763 15.0305C58.1331 15.1254 58.4776 15.1729 58.8097 15.1729C59.1419 15.1729 59.4863 15.1254 59.8431 15.0305C60.1999 14.9237 60.5259 14.728 60.8211 14.4432C61.1164 14.1585 61.3563 13.761 61.5408 13.2508C61.7254 12.7288 61.8176 12.0585 61.8176 11.2398ZM66.5263 20.1203H68.0949V14.2119H68.1687C68.2917 14.5203 68.4516 14.7814 68.6485 14.9949C68.8576 15.2085 69.0914 15.3805 69.3497 15.511C69.6081 15.6415 69.8787 15.7364 70.1617 15.7958C70.4569 15.8551 70.7522 15.8847 71.0474 15.8847C71.6625 15.8847 72.2284 15.778 72.7451 15.5644C73.2618 15.339 73.7047 15.0246 74.0738 14.6212C74.4552 14.2178 74.7504 13.7314 74.9595 13.1619C75.1687 12.5805 75.2733 11.9398 75.2733 11.2398C75.2733 10.528 75.1687 9.88729 74.9595 9.3178C74.7504 8.74831 74.4552 8.26186 74.0738 7.85847C73.7047 7.44322 73.2618 7.12881 72.7451 6.91525C72.2284 6.68983 71.6625 6.57712 71.0474 6.57712C69.5835 6.57712 68.6239 7.12288 68.1687 8.21441H68.0949V6.77288H66.5263V20.1203ZM68.0949 10.3322C68.0949 9.94068 68.1564 9.57288 68.2794 9.22881C68.4147 8.87288 68.5993 8.57034 68.833 8.32119C69.0667 8.06017 69.3374 7.85847 69.645 7.7161C69.9648 7.56186 70.3031 7.48475 70.6599 7.48475C71.0413 7.48475 71.4042 7.55593 71.7486 7.69831C72.1054 7.82881 72.413 8.04237 72.6713 8.33898C72.9297 8.63559 73.1327 9.02119 73.2803 9.49576C73.4402 9.97034 73.5202 10.5398 73.5202 11.2042C73.5202 11.8805 73.4402 12.4559 73.2803 12.9305C73.1327 13.4051 72.9235 13.7966 72.6529 14.1051C72.3945 14.4017 72.0931 14.6212 71.7486 14.7636C71.4042 14.8941 71.0413 14.9593 70.6599 14.9593C70.3154 14.9593 69.9894 14.8941 69.6819 14.7636C69.3743 14.6212 69.1037 14.4195 68.8699 14.1585C68.6362 13.8856 68.4455 13.5593 68.2979 13.1797C68.1625 12.8 68.0949 12.3669 68.0949 11.8805V10.3322ZM90.7098 10.1186H87.056V10.8483H89.1228V14.0695C88.5692 14.4136 88.0033 14.6686 87.4251 14.8347C86.8468 15.0008 86.1887 15.0839 85.4505 15.0839C84.4787 15.0839 83.6298 14.9415 82.904 14.6568C82.1781 14.372 81.5753 13.9805 81.0955 13.4822C80.6157 12.972 80.2528 12.3729 80.0068 11.6847C79.773 10.9847 79.6562 10.2195 79.6562 9.38898C79.6562 8.57034 79.7669 7.81695 79.9883 7.12881C80.2221 6.44068 80.5665 5.84746 81.0217 5.34915C81.4769 4.85085 82.0305 4.46525 82.6825 4.19237C83.3468 3.91949 84.1157 3.78305 84.9892 3.78305C85.5674 3.78305 86.1087 3.84237 86.6131 3.96102C87.1175 4.07966 87.5665 4.2339 87.9602 4.42373C88.3539 4.61356 88.6737 4.83305 88.9198 5.0822C89.1781 5.31949 89.3442 5.56271 89.418 5.81186H90.7467C90.6359 5.55085 90.4453 5.26017 90.1746 4.93983C89.9163 4.60763 89.5595 4.29915 89.1043 4.01441C88.6491 3.72966 88.0832 3.49237 87.4066 3.30254C86.7423 3.10085 85.9549 3 85.0446 3C83.9989 3 83.0331 3.14237 82.1474 3.42712C81.2739 3.71186 80.5173 4.12119 79.8776 4.65509C79.2379 5.18898 78.7396 5.84746 78.3829 6.63051C78.0261 7.40169 77.8477 8.27966 77.8477 9.26441C77.8477 10.1068 77.983 10.9254 78.2537 11.7203C78.5366 12.5034 78.9611 13.2093 79.527 13.8381C80.1052 14.4551 80.8372 14.9534 81.7229 15.333C82.6087 15.7008 83.6667 15.8847 84.8969 15.8847C85.8196 15.8847 86.6377 15.7898 87.3512 15.6C88.0648 15.3983 88.6553 15.1788 89.1228 14.9415V15.6712H90.7098V10.1186ZM93.8539 6.77288V15.6712H95.4224V10.2966C95.4224 9.81017 95.4778 9.40085 95.5885 9.06864C95.7115 8.72458 95.8653 8.44576 96.0498 8.2322C96.2344 8.01864 96.4374 7.86441 96.6588 7.76949C96.8802 7.67458 97.0955 7.62712 97.3047 7.62712C97.5876 7.62712 97.846 7.7161 98.0797 7.89407C98.3258 8.07203 98.5041 8.23814 98.6149 8.39237L99.2423 7.28898C99.1315 7.14661 98.9962 7.02797 98.8363 6.93305C98.6887 6.83814 98.5349 6.76695 98.375 6.71949C98.2273 6.66017 98.0859 6.62458 97.9505 6.61271C97.8275 6.58898 97.7353 6.57712 97.6737 6.57712C97.157 6.57712 96.7265 6.71356 96.382 6.98644C96.0375 7.25932 95.7546 7.66271 95.5331 8.19661H95.4224V6.77288H93.8539ZM110.459 11.2398C110.459 11.8568 110.348 12.45 110.127 13.0195C109.905 13.5771 109.585 14.0695 109.167 14.4966C108.761 14.9237 108.263 15.2619 107.672 15.511C107.094 15.7602 106.442 15.8847 105.716 15.8847C104.978 15.8847 104.308 15.7602 103.705 15.511C103.114 15.25 102.61 14.9059 102.192 14.4788C101.786 14.0517 101.466 13.5593 101.232 13.0017C101.011 12.4322 100.9 11.8449 100.9 11.2398C100.9 10.6229 101.011 10.0356 101.232 9.47797C101.466 8.90847 101.786 8.41017 102.192 7.98305C102.61 7.55593 103.114 7.2178 103.705 6.96864C104.308 6.70763 104.978 6.57712 105.716 6.57712C106.442 6.57712 107.094 6.70763 107.672 6.96864C108.263 7.2178 108.761 7.55593 109.167 7.98305C109.585 8.41017 109.905 8.90847 110.127 9.47797C110.348 10.0356 110.459 10.6229 110.459 11.2398ZM108.706 11.2398C108.706 10.4093 108.614 9.73898 108.429 9.22881C108.244 8.70678 108.005 8.30339 107.709 8.01864C107.414 7.7339 107.088 7.54407 106.731 7.44915C106.375 7.34237 106.03 7.28898 105.698 7.28898C105.366 7.28898 105.021 7.34237 104.665 7.44915C104.308 7.54407 103.976 7.7339 103.668 8.01864C103.373 8.30339 103.127 8.70678 102.93 9.22881C102.745 9.73898 102.653 10.4093 102.653 11.2398C102.653 12.0585 102.745 12.7288 102.93 13.2508C103.127 13.761 103.373 14.1585 103.668 14.4432C103.976 14.728 104.308 14.9237 104.665 15.0305C105.021 15.1254 105.366 15.1729 105.698 15.1729C106.03 15.1729 106.375 15.1254 106.731 15.0305C107.088 14.9237 107.414 14.728 107.709 14.4432C108.005 14.1585 108.244 13.761 108.429 13.2508C108.614 12.7288 108.706 12.0585 108.706 11.2398ZM112.307 6.77288L115.5 15.6712H116.496L118.637 9.70932H118.711L121.11 15.6712H121.977L125.335 6.77288H124.376L121.866 13.4288H121.792L119.172 6.77288H118.803L116.386 13.4822H116.312L113.913 6.77288H112.307Z" fill="#0F2C4B"/>
<path d="M9.88548 4.54237C10.6135 4.54237 11.2036 3.97324 11.2036 3.27119C11.2036 2.56913 10.6135 2 9.88548 2C9.15752 2 8.56738 2.56913 8.56738 3.27119C8.56738 3.97324 9.15752 4.54237 9.88548 4.54237Z" fill="#99E8A4"/>
<path d="M7.03002 7.72035C7.75798 7.72035 8.34812 7.15122 8.34812 6.44916C8.34812 5.74711 7.75798 5.17798 7.03002 5.17798C6.30205 5.17798 5.71191 5.74711 5.71191 6.44916C5.71191 7.15122 6.30205 7.72035 7.03002 7.72035Z" fill="#84DEB1"/>
<path d="M12.7419 7.72035C13.4699 7.72035 14.06 7.15122 14.06 6.44916C14.06 5.74711 13.4699 5.17798 12.7419 5.17798C12.014 5.17798 11.4238 5.74711 11.4238 6.44916C11.4238 7.15122 12.014 7.72035 12.7419 7.72035Z" fill="#84DEB1"/>
<path d="M9.88548 7.72035C10.6135 7.72035 11.2036 7.15122 11.2036 6.44916C11.2036 5.74711 10.6135 5.17798 9.88548 5.17798C9.15752 5.17798 8.56738 5.74711 8.56738 6.44916C8.56738 7.15122 9.15752 7.72035 9.88548 7.72035Z" fill="#86E1B4"/>
<path d="M15.7073 10.4746C16.3746 10.4746 16.9155 9.95285 16.9155 9.3093C16.9155 8.66575 16.3746 8.14404 15.7073 8.14404C15.04 8.14404 14.499 8.66575 14.499 9.3093C14.499 9.95285 15.04 10.4746 15.7073 10.4746Z" fill="#68D4C8"/>
<path d="M4.06471 10.4746C4.73201 10.4746 5.27297 9.95285 5.27297 9.3093C5.27297 8.66575 4.73201 8.14404 4.06471 8.14404C3.3974 8.14404 2.85645 8.66575 2.85645 9.3093C2.85645 9.95285 3.3974 10.4746 4.06471 10.4746Z" fill="#68D4C8"/>
<path d="M7.1399 10.4746C7.8072 10.4746 8.34816 9.95285 8.34816 9.3093C8.34816 8.66575 7.8072 8.14404 7.1399 8.14404C6.4726 8.14404 5.93164 8.66575 5.93164 9.3093C5.93164 9.95285 6.4726 10.4746 7.1399 10.4746Z" fill="#99E8A4"/>
<path d="M12.8518 10.4746C13.5191 10.4746 14.0601 9.95285 14.0601 9.3093C14.0601 8.66575 13.5191 8.14404 12.8518 8.14404C12.1845 8.14404 11.6436 8.66575 11.6436 9.3093C11.6436 9.95285 12.1845 10.4746 12.8518 10.4746Z" fill="#84DEB1"/>
<path d="M9.99537 10.4746C10.6627 10.4746 11.2036 9.95285 11.2036 9.3093C11.2036 8.66575 10.6627 8.14404 9.99537 8.14404C9.32807 8.14404 8.78711 8.66575 8.78711 9.3093C8.78711 9.95285 9.32807 10.4746 9.99537 10.4746Z" fill="#68D4C8"/>
<path d="M1.09842 13.2288C1.70506 13.2288 2.19684 12.7545 2.19684 12.1694C2.19684 11.5844 1.70506 11.1101 1.09842 11.1101C0.491779 11.1101 0 11.5844 0 12.1694C0 12.7545 0.491779 13.2288 1.09842 13.2288Z" fill="#7FD8D4"/>
<path d="M18.4529 13.2288C19.0596 13.2288 19.5513 12.7545 19.5513 12.1694C19.5513 11.5844 19.0596 11.1101 18.4529 11.1101C17.8463 11.1101 17.3545 11.5844 17.3545 12.1694C17.3545 12.7545 17.8463 13.2288 18.4529 13.2288Z" fill="#7FD8D4"/>
<path d="M15.3777 13.2288C15.9844 13.2288 16.4761 12.7545 16.4761 12.1694C16.4761 11.5844 15.9844 11.1101 15.3777 11.1101C14.7711 11.1101 14.2793 11.5844 14.2793 12.1694C14.2793 12.7545 14.7711 13.2288 15.3777 13.2288Z" fill="#7FD8D4"/>
<path d="M3.73514 13.2288C4.34178 13.2288 4.83356 12.7545 4.83356 12.1694C4.83356 11.5844 4.34178 11.1101 3.73514 11.1101C3.1285 11.1101 2.63672 11.5844 2.63672 12.1694C2.63672 12.7545 3.1285 13.2288 3.73514 13.2288Z" fill="#7FD8D4"/>
<path d="M6.81033 13.2288C7.41697 13.2288 7.90875 12.7545 7.90875 12.1694C7.90875 11.5844 7.41697 11.1101 6.81033 11.1101C6.20369 11.1101 5.71191 11.5844 5.71191 12.1694C5.71191 12.7545 6.20369 13.2288 6.81033 13.2288Z" fill="#7FD8D4"/>
<path d="M12.5222 13.2288C13.1289 13.2288 13.6207 12.7545 13.6207 12.1694C13.6207 11.5844 13.1289 11.1101 12.5222 11.1101C11.9156 11.1101 11.4238 11.5844 11.4238 12.1694C11.4238 12.7545 11.9156 13.2288 12.5222 13.2288Z" fill="#7FD8D4"/>
<path d="M9.6658 13.2288C10.2724 13.2288 10.7642 12.7545 10.7642 12.1694C10.7642 11.5844 10.2724 11.1101 9.6658 11.1101C9.05916 11.1101 8.56738 11.5844 8.56738 12.1694C8.56738 12.7545 9.05916 13.2288 9.6658 13.2288Z" fill="#7FD8D4"/>
<path d="M15.7073 15.7712C16.2533 15.7712 16.6959 15.3443 16.6959 14.8178C16.6959 14.2912 16.2533 13.8644 15.7073 13.8644C15.1614 13.8644 14.7188 14.2912 14.7188 14.8178C14.7188 15.3443 15.1614 15.7712 15.7073 15.7712Z" fill="#68D4C8"/>
<path d="M4.06377 15.7712C4.60975 15.7712 5.05235 15.3443 5.05235 14.8178C5.05235 14.2912 4.60975 13.8644 4.06377 13.8644C3.5178 13.8644 3.0752 14.2912 3.0752 14.8178C3.0752 15.3443 3.5178 15.7712 4.06377 15.7712Z" fill="#68D4C8"/>
<path d="M7.13994 15.7712C7.68592 15.7712 8.12852 15.3443 8.12852 14.8178C8.12852 14.2912 7.68592 13.8644 7.13994 13.8644C6.59397 13.8644 6.15137 14.2912 6.15137 14.8178C6.15137 15.3443 6.59397 15.7712 7.13994 15.7712Z" fill="#68D4C8"/>
<path d="M12.8519 15.7712C13.3978 15.7712 13.8404 15.3443 13.8404 14.8178C13.8404 14.2912 13.3978 13.8644 12.8519 13.8644C12.3059 13.8644 11.8633 14.2912 11.8633 14.8178C11.8633 15.3443 12.3059 15.7712 12.8519 15.7712Z" fill="#68D4C8"/>
<path d="M9.99541 15.7712C10.5414 15.7712 10.984 15.3443 10.984 14.8178C10.984 14.2912 10.5414 13.8644 9.99541 13.8644C9.44944 13.8644 9.00684 14.2912 9.00684 14.8178C9.00684 15.3443 9.44944 15.7712 9.99541 15.7712Z" fill="#68D4C8"/>
<path d="M7.0301 18.1017C7.51541 18.1017 7.90884 17.7222 7.90884 17.2542C7.90884 16.7862 7.51541 16.4067 7.0301 16.4067C6.54479 16.4067 6.15137 16.7862 6.15137 17.2542C6.15137 17.7222 6.54479 18.1017 7.0301 18.1017Z" fill="#59CDD2"/>
<path d="M12.742 18.1017C13.2273 18.1017 13.6208 17.7222 13.6208 17.2542C13.6208 16.7862 13.2273 16.4067 12.742 16.4067C12.2567 16.4067 11.8633 16.7862 11.8633 17.2542C11.8633 17.7222 12.2567 18.1017 12.742 18.1017Z" fill="#59CDD2"/>
<path d="M9.88557 18.1017C10.3709 18.1017 10.7643 17.7222 10.7643 17.2542C10.7643 16.7862 10.3709 16.4067 9.88557 16.4067C9.40026 16.4067 9.00684 16.7862 9.00684 17.2542C9.00684 17.7222 9.40026 18.1017 9.88557 18.1017Z" fill="#59CDD2"/>
<path d="M9.77573 20.6441C10.2004 20.6441 10.5446 20.3121 10.5446 19.9025C10.5446 19.493 10.2004 19.161 9.77573 19.161C9.35108 19.161 9.00684 19.493 9.00684 19.9025C9.00684 20.3121 9.35108 20.6441 9.77573 20.6441Z" fill="#34BDE8"/>
<path d="M27 21L27 1" stroke="#0F2C4B"/>
</g>
<defs>
<clipPath id="clip0_29_291">
<rect width="125" height="25" fill="white"/>
</clipPath>
</defs>
</svg>
