<svg width="181" height="39" viewBox="0 0 181 39" fill="none" xmlns="http://www.w3.org/2000/svg">
<g clip-path="url(#clip0_25_84)">
<path d="M53.0351 20.4504C53.4982 20.5787 53.997 20.6887 54.5314 20.7804C55.0658 20.8537 55.6537 20.8904 56.295 20.8904C57.3816 20.8904 58.3436 20.7345 59.1808 20.4229C60.0181 20.1113 60.7128 19.6896 61.265 19.158C61.8351 18.608 62.2626 17.9848 62.5476 17.2882C62.8326 16.5732 62.9751 15.8125 62.9751 15.0059C62.9751 14.2359 62.8504 13.5026 62.601 12.806C62.3517 12.0911 61.9687 11.477 61.4521 10.9637C60.9533 10.4321 60.3209 10.0104 59.5549 9.6988C58.7889 9.38716 57.8893 9.23134 56.8561 9.23134H50.6035V28.4797H53.0351V20.4504ZM53.0351 10.4412H55.8407C56.5889 10.4412 57.248 10.5787 57.8181 10.8537C58.3881 11.1287 58.8602 11.4953 59.2343 11.9536C59.6083 12.3936 59.8845 12.8977 60.0626 13.466C60.2585 14.0159 60.3565 14.5659 60.3565 15.1158C60.3565 15.6475 60.2674 16.1883 60.0893 16.7382C59.929 17.2698 59.6618 17.7556 59.2877 18.1956C58.9136 18.6355 58.4415 18.993 57.8715 19.268C57.3015 19.543 56.6156 19.6805 55.814 19.6805C55.2618 19.6805 54.7541 19.6621 54.291 19.6255C53.8278 19.5705 53.4092 19.4696 53.0351 19.323V10.4412ZM66.7236 14.7309V28.4797H68.9949V20.1754C68.9949 19.4238 69.0751 18.7914 69.2354 18.2781C69.4135 17.7465 69.6362 17.3157 69.9034 16.9857C70.1706 16.6557 70.4645 16.4174 70.7852 16.2707C71.1058 16.1241 71.4176 16.0508 71.7204 16.0508C72.1301 16.0508 72.5042 16.1883 72.8427 16.4632C73.1989 16.7382 73.4572 16.9949 73.6175 17.2332L74.5261 15.5283C74.3657 15.3083 74.1698 15.125 73.9382 14.9784C73.7244 14.8317 73.5018 14.7217 73.2702 14.6484C73.0564 14.5567 72.8516 14.5017 72.6556 14.4834C72.4775 14.4467 72.3439 14.4284 72.2548 14.4284C71.5066 14.4284 70.8832 14.6392 70.3844 15.0608C69.8856 15.4825 69.4759 16.1058 69.1552 16.9307H68.9949V14.7309H66.7236ZM90.7677 21.6328C90.7677 22.586 90.6074 23.5026 90.2867 24.3826C89.9661 25.2442 89.5029 26.0049 88.8973 26.6649C88.3094 27.3248 87.5879 27.8473 86.7329 28.2322C85.8956 28.6172 84.9515 28.8097 83.9005 28.8097C82.8317 28.8097 81.8608 28.6172 80.988 28.2322C80.1329 27.8289 79.4026 27.2973 78.7969 26.6374C78.209 25.9774 77.7459 25.2167 77.4074 24.3551C77.0868 23.4751 76.9264 22.5677 76.9264 21.6328C76.9264 20.6795 77.0868 19.7721 77.4074 18.9105C77.7459 18.0306 78.209 17.2607 78.7969 16.6007C79.4026 15.9408 80.1329 15.4183 80.988 15.0334C81.8608 14.6301 82.8317 14.4284 83.9005 14.4284C84.9515 14.4284 85.8956 14.6301 86.7329 15.0334C87.5879 15.4183 88.3094 15.9408 88.8973 16.6007C89.5029 17.2607 89.9661 18.0306 90.2867 18.9105C90.6074 19.7721 90.7677 20.6795 90.7677 21.6328ZM88.2292 21.6328C88.2292 20.3496 88.0956 19.3138 87.8284 18.5256C87.5612 17.719 87.2139 17.0957 86.7863 16.6557C86.3588 16.2158 85.8867 15.9224 85.3701 15.7758C84.8535 15.6108 84.3548 15.5283 83.8738 15.5283C83.3928 15.5283 82.894 15.6108 82.3774 15.7758C81.8608 15.9224 81.3799 16.2158 80.9345 16.6557C80.507 17.0957 80.1507 17.719 79.8657 18.5256C79.5985 19.3138 79.4649 20.3496 79.4649 21.6328C79.4649 22.8977 79.5985 23.9334 79.8657 24.74C80.1507 25.5283 80.507 26.1424 80.9345 26.5824C81.3799 27.0223 81.8608 27.3248 82.3774 27.4898C82.894 27.6365 83.3928 27.7098 83.8738 27.7098C84.3548 27.7098 84.8535 27.6365 85.3701 27.4898C85.8867 27.3248 86.3588 27.0223 86.7863 26.5824C87.2139 26.1424 87.5612 25.5283 87.8284 24.74C88.0956 23.9334 88.2292 22.8977 88.2292 21.6328ZM95.0474 35.3541H97.3187V26.2249H97.4256C97.6037 26.7015 97.8353 27.1048 98.1203 27.4348C98.4231 27.7648 98.7616 28.0306 99.1357 28.2322C99.5098 28.4339 99.9017 28.5805 100.311 28.6722C100.739 28.7639 101.166 28.8097 101.594 28.8097C102.485 28.8097 103.304 28.6447 104.052 28.3147C104.8 27.9664 105.442 27.4806 105.976 26.8574C106.528 26.2341 106.956 25.4825 107.259 24.6025C107.562 23.7043 107.713 22.7144 107.713 21.6328C107.713 20.5329 107.562 19.543 107.259 18.663C106.956 17.7831 106.528 17.0315 105.976 16.4082C105.442 15.7666 104.8 15.2808 104.052 14.9509C103.304 14.6026 102.485 14.4284 101.594 14.4284C99.4742 14.4284 98.0847 15.2717 97.4256 16.9582H97.3187V14.7309H95.0474V35.3541ZM97.3187 20.2304C97.3187 19.6255 97.4078 19.0572 97.5859 18.5256C97.7818 17.9756 98.049 17.5081 98.3875 17.1232C98.726 16.7199 99.1179 16.4082 99.5632 16.1883C100.026 15.9499 100.516 15.8308 101.033 15.8308C101.585 15.8308 102.111 15.9408 102.609 16.1608C103.126 16.3624 103.571 16.6924 103.945 17.1507C104.319 17.609 104.613 18.2048 104.827 18.938C105.059 19.6713 105.175 20.5512 105.175 21.5778C105.175 22.6227 105.059 23.5118 104.827 24.2451C104.613 24.9783 104.311 25.5833 103.919 26.0599C103.545 26.5182 103.108 26.8574 102.609 27.0773C102.111 27.279 101.585 27.3798 101.033 27.3798C100.534 27.3798 100.062 27.279 99.6167 27.0773C99.1713 26.8574 98.7794 26.5457 98.4409 26.1424C98.1025 25.7208 97.8264 25.2167 97.6126 24.63C97.4167 24.0434 97.3187 23.3743 97.3187 22.6227V20.2304ZM130.065 19.9004H124.774V21.0278H127.767V26.0049C126.965 26.5365 126.146 26.9307 125.309 27.1873C124.472 27.444 123.519 27.5723 122.45 27.5723C121.042 27.5723 119.813 27.3523 118.762 26.9123C117.711 26.4724 116.838 25.8674 116.144 25.0975C115.449 24.3092 114.923 23.3835 114.567 22.3202C114.229 21.2387 114.059 20.0563 114.059 18.773C114.059 17.5081 114.22 16.3441 114.54 15.2808C114.879 14.2176 115.378 13.301 116.037 12.5311C116.696 11.7611 117.497 11.1653 118.442 10.7437C119.404 10.3221 120.517 10.1113 121.782 10.1113C122.619 10.1113 123.403 10.2029 124.133 10.3862C124.863 10.5696 125.514 10.8079 126.084 11.1012C126.654 11.3945 127.117 11.7336 127.473 12.1186C127.847 12.4852 128.088 12.861 128.195 13.246H130.118C129.958 12.8427 129.682 12.3936 129.29 11.8986C128.916 11.3853 128.399 10.9087 127.74 10.4687C127.081 10.0288 126.262 9.66214 125.282 9.36883C124.32 9.05719 123.18 8.90137 121.862 8.90137C120.348 8.90137 118.949 9.12135 117.667 9.56131C116.402 10.0013 115.306 10.6337 114.38 11.4587C113.454 12.2836 112.732 13.301 112.216 14.5109C111.699 15.7025 111.441 17.059 111.441 18.5806C111.441 19.8821 111.637 21.147 112.029 22.3752C112.438 23.5851 113.053 24.6759 113.872 25.6475C114.71 26.6007 115.77 27.3706 117.052 27.9573C118.335 28.5255 119.867 28.8097 121.648 28.8097C122.984 28.8097 124.169 28.663 125.202 28.3697C126.235 28.0581 127.09 27.7189 127.767 27.3523V28.4797H130.065V19.9004ZM134.618 14.7309V28.4797H136.889V20.1754C136.889 19.4238 136.969 18.7914 137.129 18.2781C137.308 17.7465 137.53 17.3157 137.797 16.9857C138.065 16.6557 138.359 16.4174 138.679 16.2707C139 16.1241 139.312 16.0508 139.614 16.0508C140.024 16.0508 140.398 16.1883 140.737 16.4632C141.093 16.7382 141.351 16.9949 141.512 17.2332L142.42 15.5283C142.26 15.3083 142.064 15.125 141.832 14.9784C141.619 14.8317 141.396 14.7217 141.164 14.6484C140.95 14.5567 140.746 14.5017 140.55 14.4834C140.372 14.4467 140.238 14.4284 140.149 14.4284C139.401 14.4284 138.777 14.6392 138.278 15.0608C137.78 15.4825 137.37 16.1058 137.049 16.9307H136.889V14.7309H134.618ZM158.662 21.6328C158.662 22.586 158.501 23.5026 158.181 24.3826C157.86 25.2442 157.397 26.0049 156.791 26.6649C156.203 27.3248 155.482 27.8473 154.627 28.2322C153.79 28.6172 152.846 28.8097 151.795 28.8097C150.726 28.8097 149.755 28.6172 148.882 28.2322C148.027 27.8289 147.297 27.2973 146.691 26.6374C146.103 25.9774 145.64 25.2167 145.302 24.3551C144.981 23.4751 144.821 22.5677 144.821 21.6328C144.821 20.6795 144.981 19.7721 145.302 18.9105C145.64 18.0306 146.103 17.2607 146.691 16.6007C147.297 15.9408 148.027 15.4183 148.882 15.0334C149.755 14.6301 150.726 14.4284 151.795 14.4284C152.846 14.4284 153.79 14.6301 154.627 15.0334C155.482 15.4183 156.203 15.9408 156.791 16.6007C157.397 17.2607 157.86 18.0306 158.181 18.9105C158.501 19.7721 158.662 20.6795 158.662 21.6328ZM156.123 21.6328C156.123 20.3496 155.99 19.3138 155.723 18.5256C155.455 17.719 155.108 17.0957 154.68 16.6557C154.253 16.2158 153.781 15.9224 153.264 15.7758C152.748 15.6108 152.249 15.5283 151.768 15.5283C151.287 15.5283 150.788 15.6108 150.272 15.7758C149.755 15.9224 149.274 16.2158 148.829 16.6557C148.401 17.0957 148.045 17.719 147.76 18.5256C147.493 19.3138 147.359 20.3496 147.359 21.6328C147.359 22.8977 147.493 23.9334 147.76 24.74C148.045 25.5283 148.401 26.1424 148.829 26.5824C149.274 27.0223 149.755 27.3248 150.272 27.4898C150.788 27.6365 151.287 27.7098 151.768 27.7098C152.249 27.7098 152.748 27.6365 153.264 27.4898C153.781 27.3248 154.253 27.0223 154.68 26.5824C155.108 26.1424 155.455 25.5283 155.723 24.74C155.99 23.9334 156.123 22.8977 156.123 21.6328ZM161.338 14.7309L165.961 28.4797H167.404L170.503 19.268H170.61L174.084 28.4797H175.34L180.203 14.7309H178.814L175.18 25.015H175.073L171.278 14.7309H170.744L167.244 25.0975H167.137L163.663 14.7309H161.338Z" fill="#0F2C4B"/>
<path d="M14.3149 8.83852C15.369 8.83852 16.2235 7.95915 16.2235 6.8744C16.2235 5.78964 15.369 4.91028 14.3149 4.91028C13.2608 4.91028 12.4062 5.78964 12.4062 6.8744C12.4062 7.95915 13.2608 8.83852 14.3149 8.83852Z" fill="#99E8A4"/>
<path d="M10.1791 13.7488C11.2332 13.7488 12.0877 12.8694 12.0877 11.7847C12.0877 10.6999 11.2332 9.82056 10.1791 9.82056C9.12502 9.82056 8.27051 10.6999 8.27051 11.7847C8.27051 12.8694 9.12502 13.7488 10.1791 13.7488Z" fill="#84DEB1"/>
<path d="M18.4496 13.7488C19.5037 13.7488 20.3582 12.8694 20.3582 11.7847C20.3582 10.6999 19.5037 9.82056 18.4496 9.82056C17.3955 9.82056 16.541 10.6999 16.541 11.7847C16.541 12.8694 17.3955 13.7488 18.4496 13.7488Z" fill="#84DEB1"/>
<path d="M14.3149 13.7488C15.369 13.7488 16.2235 12.8694 16.2235 11.7847C16.2235 10.6999 15.369 9.82056 14.3149 9.82056C13.2608 9.82056 12.4062 10.6999 12.4062 11.7847C12.4062 12.8694 13.2608 13.7488 14.3149 13.7488Z" fill="#86E1B4"/>
<path d="M22.7447 18.0045C23.7109 18.0045 24.4942 17.1984 24.4942 16.204C24.4942 15.2097 23.7109 14.4036 22.7447 14.4036C21.7784 14.4036 20.9951 15.2097 20.9951 16.204C20.9951 17.1984 21.7784 18.0045 22.7447 18.0045Z" fill="#68D4C8"/>
<path d="M5.8853 18.0045C6.85156 18.0045 7.63486 17.1984 7.63486 16.204C7.63486 15.2097 6.85156 14.4036 5.8853 14.4036C4.91905 14.4036 4.13574 15.2097 4.13574 16.204C4.13574 17.1984 4.91905 18.0045 5.8853 18.0045Z" fill="#68D4C8"/>
<path d="M10.3384 18.0045C11.3047 18.0045 12.088 17.1984 12.088 16.204C12.088 15.2097 11.3047 14.4036 10.3384 14.4036C9.37217 14.4036 8.58887 15.2097 8.58887 16.204C8.58887 17.1984 9.37217 18.0045 10.3384 18.0045Z" fill="#99E8A4"/>
<path d="M18.6089 18.0045C19.5752 18.0045 20.3585 17.1984 20.3585 16.204C20.3585 15.2097 19.5752 14.4036 18.6089 14.4036C17.6427 14.4036 16.8594 15.2097 16.8594 16.204C16.8594 17.1984 17.6427 18.0045 18.6089 18.0045Z" fill="#84DEB1"/>
<path d="M14.4732 18.0045C15.4394 18.0045 16.2228 17.1984 16.2228 16.204C16.2228 15.2097 15.4394 14.4036 14.4732 14.4036C13.5069 14.4036 12.7236 15.2097 12.7236 16.204C12.7236 17.1984 13.5069 18.0045 14.4732 18.0045Z" fill="#68D4C8"/>
<path d="M1.59051 22.26C2.46892 22.26 3.18102 21.5272 3.18102 20.6232C3.18102 19.7193 2.46892 18.9865 1.59051 18.9865C0.712095 18.9865 0 19.7193 0 20.6232C0 21.5272 0.712095 22.26 1.59051 22.26Z" fill="#7FD8D4"/>
<path d="M26.7204 22.26C27.5988 22.26 28.3109 21.5272 28.3109 20.6232C28.3109 19.7193 27.5988 18.9865 26.7204 18.9865C25.842 18.9865 25.1299 19.7193 25.1299 20.6232C25.1299 21.5272 25.842 22.26 26.7204 22.26Z" fill="#7FD8D4"/>
<path d="M22.2673 22.26C23.1457 22.26 23.8578 21.5272 23.8578 20.6232C23.8578 19.7193 23.1457 18.9865 22.2673 18.9865C21.3889 18.9865 20.6768 19.7193 20.6768 20.6232C20.6768 21.5272 21.3889 22.26 22.2673 22.26Z" fill="#7FD8D4"/>
<path d="M5.40789 22.26C6.28631 22.26 6.9984 21.5272 6.9984 20.6232C6.9984 19.7193 6.28631 18.9865 5.40789 18.9865C4.52948 18.9865 3.81738 19.7193 3.81738 20.6232C3.81738 21.5272 4.52948 22.26 5.40789 22.26Z" fill="#7FD8D4"/>
<path d="M9.86102 22.26C10.7394 22.26 11.4515 21.5272 11.4515 20.6232C11.4515 19.7193 10.7394 18.9865 9.86102 18.9865C8.9826 18.9865 8.27051 19.7193 8.27051 20.6232C8.27051 21.5272 8.9826 22.26 9.86102 22.26Z" fill="#7FD8D4"/>
<path d="M18.1315 22.26C19.0099 22.26 19.722 21.5272 19.722 20.6232C19.722 19.7193 19.0099 18.9865 18.1315 18.9865C17.2531 18.9865 16.541 19.7193 16.541 20.6232C16.541 21.5272 17.2531 22.26 18.1315 22.26Z" fill="#7FD8D4"/>
<path d="M13.9968 22.26C14.8752 22.26 15.5873 21.5272 15.5873 20.6232C15.5873 19.7193 14.8752 18.9865 13.9968 18.9865C13.1183 18.9865 12.4062 19.7193 12.4062 20.6232C12.4062 21.5272 13.1183 22.26 13.9968 22.26Z" fill="#7FD8D4"/>
<path d="M22.744 26.1882C23.5345 26.1882 24.1754 25.5287 24.1754 24.7152C24.1754 23.9016 23.5345 23.2421 22.744 23.2421C21.9534 23.2421 21.3125 23.9016 21.3125 24.7152C21.3125 25.5287 21.9534 26.1882 22.744 26.1882Z" fill="#68D4C8"/>
<path d="M5.88458 26.1882C6.67516 26.1882 7.31604 25.5287 7.31604 24.7152C7.31604 23.9016 6.67516 23.2421 5.88458 23.2421C5.09401 23.2421 4.45312 23.9016 4.45312 24.7152C4.45312 25.5287 5.09401 26.1882 5.88458 26.1882Z" fill="#68D4C8"/>
<path d="M10.3387 26.1882C11.1293 26.1882 11.7701 25.5287 11.7701 24.7152C11.7701 23.9016 11.1293 23.2421 10.3387 23.2421C9.54811 23.2421 8.90723 23.9016 8.90723 24.7152C8.90723 25.5287 9.54811 26.1882 10.3387 26.1882Z" fill="#68D4C8"/>
<path d="M18.6092 26.1882C19.3998 26.1882 20.0407 25.5287 20.0407 24.7152C20.0407 23.9016 19.3998 23.2421 18.6092 23.2421C17.8186 23.2421 17.1777 23.9016 17.1777 24.7152C17.1777 25.5287 17.8186 26.1882 18.6092 26.1882Z" fill="#68D4C8"/>
<path d="M14.4735 26.1882C15.264 26.1882 15.9049 25.5287 15.9049 24.7152C15.9049 23.9016 15.264 23.2421 14.4735 23.2421C13.6829 23.2421 13.042 23.9016 13.042 24.7152C13.042 25.5287 13.6829 26.1882 14.4735 26.1882Z" fill="#68D4C8"/>
<path d="M10.1796 29.7891C10.8824 29.7891 11.452 29.2029 11.452 28.4797C11.452 27.7565 10.8824 27.1703 10.1796 27.1703C9.4769 27.1703 8.90723 27.7565 8.90723 28.4797C8.90723 29.2029 9.4769 29.7891 10.1796 29.7891Z" fill="#59CDD2"/>
<path d="M18.4501 29.7891C19.1529 29.7891 19.7225 29.2029 19.7225 28.4797C19.7225 27.7565 19.1529 27.1703 18.4501 27.1703C17.7474 27.1703 17.1777 27.7565 17.1777 28.4797C17.1777 29.2029 17.7474 29.7891 18.4501 29.7891Z" fill="#59CDD2"/>
<path d="M14.3144 29.7891C15.0171 29.7891 15.5868 29.2029 15.5868 28.4797C15.5868 27.7565 15.0171 27.1703 14.3144 27.1703C13.6117 27.1703 13.042 27.7565 13.042 28.4797C13.042 29.2029 13.6117 29.7891 14.3144 29.7891Z" fill="#59CDD2"/>
<path d="M14.1553 33.7174C14.7702 33.7174 15.2687 33.2044 15.2687 32.5716C15.2687 31.9389 14.7702 31.4259 14.1553 31.4259C13.5405 31.4259 13.042 31.9389 13.042 32.5716C13.042 33.2044 13.5405 33.7174 14.1553 33.7174Z" fill="#34BDE8"/>
<path d="M38.9678 40V0" stroke="#0F2C4B" stroke-width="2"/>
</g>
<defs>
<clipPath id="clip0_25_84">
<rect width="181" height="38.6277" fill="white"/>
</clipPath>
</defs>
</svg>
