<svg width="23" height="15" viewBox="0 0 23 15" fill="none" xmlns="http://www.w3.org/2000/svg">
<path d="M22.0088 5.09208C22.0583 3.75515 21.7452 2.42822 21.0988 1.2345C20.6602 0.744691 20.0515 0.414146 19.3788 0.300464C16.5963 0.0646434 13.8023 -0.0320119 11.0088 0.0109126C8.22546 -0.0339601 5.44152 0.0595762 2.66882 0.291124C2.12064 0.384263 1.61333 0.624428 1.20882 0.982312C0.308816 1.75756 0.208816 3.0839 0.108816 4.20474C-0.036272 6.21999 -0.036272 8.24206 0.108816 10.2573C0.137746 10.8882 0.23831 11.5144 0.408816 12.1254C0.529391 12.5971 0.773339 13.0336 1.11882 13.3957C1.52608 13.7725 2.0452 14.0263 2.60882 14.1242C4.76473 14.3728 6.93703 14.4758 9.10882 14.4325C12.6088 14.4792 15.6788 14.4325 19.3088 14.1709C19.8863 14.0791 20.42 13.8249 20.8388 13.4424C21.1188 13.1808 21.3279 12.8606 21.4488 12.5083C21.8064 11.4833 21.9821 10.4106 21.9688 9.33261C22.0088 8.80955 22.0088 5.6525 22.0088 5.09208ZM8.74882 9.89303V4.11134L14.6688 7.0162C13.0088 7.87551 10.8188 8.84691 8.74882 9.89303Z" fill="white"/>
</svg>
